<svg xmlns="http://www.w3.org/2000/svg" viewBox="0 0 245.75 62.93"><defs><style>.a{fill:#3d5467;}.b{fill:#f4d6d6;}.c{fill:#e9adae;}.d{fill:#df8585;}.e{fill:#d45c5d;}.f{fill:#ca3435;}</style></defs><title>screen-xhdpi-portrait</title><path class="a" d="M62.13,213.2q-3.71-4.39-10.35-4.39a13.59,13.59,0,0,0-7.56,2.26,15.18,15.18,0,0,0-5.43,6.24,19.27,19.27,0,0,0-1.3,3.65h5.86a10.91,10.91,0,0,1,2.5-4.78,7.74,7.74,0,0,1,5.93-2.57,7.32,7.32,0,0,1,5.8,2.44A11.14,11.14,0,0,1,60,223v.44H45.7v4.79H65.82v-2.43Q65.82,217.59,62.13,213.2Z" transform="translate(-37.12 -181.55)"/><path class="a" d="M58.06,238.18a10.1,10.1,0,0,1-5.24,1.27,9.29,9.29,0,0,1-7.18-3.11A11.16,11.16,0,0,1,43,231.05h-5.9a15.6,15.6,0,0,0,4.09,8.6,14.91,14.91,0,0,0,11.29,4.56q8.58,0,12.88-6.59l-3.57-2.78A13,13,0,0,1,58.06,238.18Z" transform="translate(-37.12 -181.55)"/><path class="a" d="M279.19,213.2q-3.7-4.39-10.35-4.39a13.61,13.61,0,0,0-7.56,2.26,15.18,15.18,0,0,0-5.43,6.24,19.27,19.27,0,0,0-1.3,3.65h5.86a11,11,0,0,1,2.5-4.78,7.74,7.74,0,0,1,5.93-2.57,7.32,7.32,0,0,1,5.8,2.44A11.14,11.14,0,0,1,277,223v.44H262.76v4.79h20.12v-2.43Q282.88,217.59,279.19,213.2Z" transform="translate(-37.12 -181.55)"/><path class="a" d="M275.12,238.18a10.1,10.1,0,0,1-5.24,1.27,9.29,9.29,0,0,1-7.18-3.11,11.16,11.16,0,0,1-2.62-5.29h-5.9a15.6,15.6,0,0,0,4.09,8.6,14.91,14.91,0,0,0,11.29,4.56q8.58,0,12.88-6.59l-3.57-2.78A13,13,0,0,1,275.12,238.18Z" transform="translate(-37.12 -181.55)"/><rect class="a" x="115.01" y="27.73" width="5.84" height="11.25"/><rect class="a" x="136.05" y="27.73" width="5.84" height="11.25"/><path class="a" d="M173.17,230.63v3.48q-2.21,5-8.89,5-6.32,0-6.31-7.76v-.7h-5.84v.86q0,6.21,2.89,9.38t8.31,3.18q6.6,0,10-4l.13,3.37H179V230.63Z" transform="translate(-37.12 -181.55)"/><path class="a" d="M195.57,215.35a8.53,8.53,0,0,1,5.24-1.57,7.36,7.36,0,0,1,5.4,1.81,6.55,6.55,0,0,1,1.83,4.87v.5h5.83v-.81A10.64,10.64,0,0,0,210.4,212q-3.35-2.94-9.24-3a16.64,16.64,0,0,0-6.83,1.39,12.51,12.51,0,0,0-4.92,3.77,8.08,8.08,0,0,0-1.82,4.94h5.87A4.66,4.66,0,0,1,195.57,215.35Z" transform="translate(-37.12 -181.55)"/><path class="a" d="M213.87,231.05H208v3.23a8.56,8.56,0,0,1-3.57,3.69,10.23,10.23,0,0,1-5.2,1.42,7,7,0,0,1-4.71-1.54,5.31,5.31,0,0,1-1.83-4.29,5.59,5.59,0,0,1,.56-2.51h-5.92a11.75,11.75,0,0,0-.47,3.33,9.25,9.25,0,0,0,3.23,7.24,12.08,12.08,0,0,0,8.28,2.85,13,13,0,0,0,9.72-4.22,12.1,12.1,0,0,0,.82,3.59h6.12v-.5a19.22,19.22,0,0,1-1.2-7.48Z" transform="translate(-37.12 -181.55)"/><rect class="a" x="185.93" y="13.84" width="5.84" height="25.58"/><polygon class="a" points="202.14 39.41 212.62 28.16 205.52 28.16 194.89 39.39 194.87 39.41 202.14 39.41"/><polygon class="a" points="204.63 49.51 197.7 49.51 207.32 62.3 214.17 62.3 204.63 49.51"/><polygon class="a" points="185.93 49.51 185.93 62.3 191.77 62.3 191.77 50.31 192.53 49.51 185.93 49.51"/><circle class="b" cx="69.61" cy="31.3" r="31.3"/><circle class="c" cx="69.61" cy="31.3" r="19.56"/><circle class="d" cx="69.61" cy="31.3" r="11.74"/><circle class="e" cx="69.61" cy="31.3" r="7.82"/><circle class="f" cx="69.61" cy="31.3" r="3.91"/><polygon class="b" points="91.87 53.48 100.96 62.57 91.87 62.57 86.42 57.12 91.87 53.48"/></svg>